<svg xmlns="http://www.w3.org/2000/svg" width="32" height="32" shape-rendering="crispEdges">
  <path fill="#fff" d="M2 2h1v1H2zm1 0h1v1H3zm1 0h1v1H4zm1 0h1v1H5zm21 0h1v1h-1zm1 0h1v1h-1zm1 0h1v1h-1zm1 0h1v1h-1zM2 3h1v1H2zm1 0h1v1H3zm1 0h1v1H4zm1 0h1v1H5zm21 0h1v1h-1zm1 0h1v1h-1zm1 0h1v1h-1zm1 0h1v1h-1zM2 4h1v1H2zm1 0h1v1H3zm1 0h1v1H4zm1 0h1v1H5zm21 0h1v1h-1zm1 0h1v1h-1zm1 0h1v1h-1zm1 0h1v1h-1zM2 5h1v1H2zm1 0h1v1H3zm1 0h1v1H4zm1 0h1v1H5zm21 0h1v1h-1zm1 0h1v1h-1zm1 0h1v1h-1zm1 0h1v1h-1zM6 6h1v1H6zm1 0h1v1H7zm1 0h1v1H8zm1 0h1v1H9zm13 0h1v1h-1zm1 0h1v1h-1zm1 0h1v1h-1zm1 0h1v1h-1zM6 7h1v1H6zm1 0h1v1H7zm1 0h1v1H8zm1 0h1v1H9zm13 0h1v1h-1zm1 0h1v1h-1zm1 0h1v1h-1zm1 0h1v1h-1zM6 8h1v1H6zm1 0h1v1H7zm1 0h1v1H8zm1 0h1v1H9zm13 0h1v1h-1zm1 0h1v1h-1zm1 0h1v1h-1zm1 0h1v1h-1zM6 9h1v1H6zm1 0h1v1H7zm1 0h1v1H8zm1 0h1v1H9zm13 0h1v1h-1zm1 0h1v1h-1zm1 0h1v1h-1zm1 0h1v1h-1zm-15 1h1v1h-1zm1 0h1v1h-1zm1 0h1v1h-1zm1 0h1v1h-1zm5 0h1v1h-1zm1 0h1v1h-1zm1 0h1v1h-1zm1 0h1v1h-1zm-11 1h1v1h-1zm1 0h1v1h-1zm1 0h1v1h-1zm1 0h1v1h-1zm5 0h1v1h-1zm1 0h1v1h-1zm1 0h1v1h-1zm1 0h1v1h-1zm-11 1h1v1h-1zm1 0h1v1h-1zm1 0h1v1h-1zm1 0h1v1h-1zm5 0h1v1h-1zm1 0h1v1h-1zm1 0h1v1h-1zm1 0h1v1h-1zm-11 1h1v1h-1zm1 0h1v1h-1zm1 0h1v1h-1zm1 0h1v1h-1zm5 0h1v1h-1zm1 0h1v1h-1zm1 0h1v1h-1zm1 0h1v1h-1zm-7 1h1v1h-1zm1 0h1v1h-1zm1 0h1v1h-1zm1 0h1v1h-1zm-3 1h1v1h-1zm1 0h1v1h-1zm1 0h1v1h-1zm1 0h1v1h-1zm-3 1h1v1h-1zm1 0h1v1h-1zm1 0h1v1h-1zm1 0h1v1h-1zm-3 1h1v1h-1zm1 0h1v1h-1zm1 0h1v1h-1zm1 0h1v1h-1zm-7 1h1v1h-1zm1 0h1v1h-1zm1 0h1v1h-1zm1 0h1v1h-1zm5 0h1v1h-1zm1 0h1v1h-1zm1 0h1v1h-1zm1 0h1v1h-1zm-11 1h1v1h-1zm1 0h1v1h-1zm1 0h1v1h-1zm1 0h1v1h-1zm5 0h1v1h-1zm1 0h1v1h-1zm1 0h1v1h-1zm1 0h1v1h-1zm-11 1h1v1h-1zm1 0h1v1h-1zm1 0h1v1h-1zm1 0h1v1h-1zm5 0h1v1h-1zm1 0h1v1h-1zm1 0h1v1h-1zm1 0h1v1h-1zm-11 1h1v1h-1zm1 0h1v1h-1zm1 0h1v1h-1zm1 0h1v1h-1zm5 0h1v1h-1zm1 0h1v1h-1zm1 0h1v1h-1zm1 0h1v1h-1zM6 22h1v1H6zm1 0h1v1H7zm1 0h1v1H8zm1 0h1v1H9zm13 0h1v1h-1zm1 0h1v1h-1zm1 0h1v1h-1zm1 0h1v1h-1zM6 23h1v1H6zm1 0h1v1H7zm1 0h1v1H8zm1 0h1v1H9zm13 0h1v1h-1zm1 0h1v1h-1zm1 0h1v1h-1zm1 0h1v1h-1zM6 24h1v1H6zm1 0h1v1H7zm1 0h1v1H8zm1 0h1v1H9zm13 0h1v1h-1zm1 0h1v1h-1zm1 0h1v1h-1zm1 0h1v1h-1zM6 25h1v1H6zm1 0h1v1H7zm1 0h1v1H8zm1 0h1v1H9zm13 0h1v1h-1zm1 0h1v1h-1zm1 0h1v1h-1zm1 0h1v1h-1zM2 26h1v1H2zm1 0h1v1H3zm1 0h1v1H4zm1 0h1v1H5zm21 0h1v1h-1zm1 0h1v1h-1zm1 0h1v1h-1zm1 0h1v1h-1zM2 27h1v1H2zm1 0h1v1H3zm1 0h1v1H4zm1 0h1v1H5zm21 0h1v1h-1zm1 0h1v1h-1zm1 0h1v1h-1zm1 0h1v1h-1zM2 28h1v1H2zm1 0h1v1H3zm1 0h1v1H4zm1 0h1v1H5zm21 0h1v1h-1zm1 0h1v1h-1zm1 0h1v1h-1zm1 0h1v1h-1zM2 29h1v1H2zm1 0h1v1H3zm1 0h1v1H4zm1 0h1v1H5zm21 0h1v1h-1zm1 0h1v1h-1zm1 0h1v1h-1zm1 0h1v1h-1z"/>
</svg>
