<svg xmlns="http://www.w3.org/2000/svg" shape-rendering="crispEdges" viewBox="0 0 32 32">
  <path fill="#fff" d="M6 10h1v1H6zm1 0h1v1H7zm1 0h1v1H8zm1 0h1v1H9zm1 0h1v1h-1zm1 0h1v1h-1zm1 0h1v1h-1zm1 0h1v1h-1zm1 0h1v1h-1zm1 0h1v1h-1zm1 0h1v1h-1zm1 0h1v1h-1zm1 0h1v1h-1zm1 0h1v1h-1zm1 0h1v1h-1zm1 0h1v1h-1zm1 0h1v1h-1zm1 0h1v1h-1zm1 0h1v1h-1zm1 0h1v1h-1zM6 11h1v1H6zm1 0h1v1H7zm1 0h1v1H8zm1 0h1v1H9zm1 0h1v1h-1zm1 0h1v1h-1zm1 0h1v1h-1zm1 0h1v1h-1zm1 0h1v1h-1zm1 0h1v1h-1zm1 0h1v1h-1zm1 0h1v1h-1zm1 0h1v1h-1zm1 0h1v1h-1zm1 0h1v1h-1zm1 0h1v1h-1zm1 0h1v1h-1zm1 0h1v1h-1zm1 0h1v1h-1zm1 0h1v1h-1zM6 12h1v1H6zm1 0h1v1H7zm1 0h1v1H8zm1 0h1v1H9zm1 0h1v1h-1zm1 0h1v1h-1zm1 0h1v1h-1zm1 0h1v1h-1zm1 0h1v1h-1zm1 0h1v1h-1zm1 0h1v1h-1zm1 0h1v1h-1zm1 0h1v1h-1zm1 0h1v1h-1zm1 0h1v1h-1zm1 0h1v1h-1zm1 0h1v1h-1zm1 0h1v1h-1zm1 0h1v1h-1zm1 0h1v1h-1zM6 13h1v1H6zm1 0h1v1H7zm1 0h1v1H8zm1 0h1v1H9zm1 0h1v1h-1zm1 0h1v1h-1zm1 0h1v1h-1zm1 0h1v1h-1zm1 0h1v1h-1zm1 0h1v1h-1zm1 0h1v1h-1zm1 0h1v1h-1zm1 0h1v1h-1zm1 0h1v1h-1zm1 0h1v1h-1zm1 0h1v1h-1zm1 0h1v1h-1zm1 0h1v1h-1zm1 0h1v1h-1zm1 0h1v1h-1zm-15 1h1v1h-1zm1 0h1v1h-1zm1 0h1v1h-1zm1 0h1v1h-1zm1 0h1v1h-1zm1 0h1v1h-1zm1 0h1v1h-1zm1 0h1v1h-1zm1 0h1v1h-1zm1 0h1v1h-1zm1 0h1v1h-1zm1 0h1v1h-1zm-11 1h1v1h-1zm1 0h1v1h-1zm1 0h1v1h-1zm1 0h1v1h-1zm1 0h1v1h-1zm1 0h1v1h-1zm1 0h1v1h-1zm1 0h1v1h-1zm1 0h1v1h-1zm1 0h1v1h-1zm1 0h1v1h-1zm1 0h1v1h-1zm-11 1h1v1h-1zm1 0h1v1h-1zm1 0h1v1h-1zm1 0h1v1h-1zm1 0h1v1h-1zm1 0h1v1h-1zm1 0h1v1h-1zm1 0h1v1h-1zm1 0h1v1h-1zm1 0h1v1h-1zm1 0h1v1h-1zm1 0h1v1h-1zm-11 1h1v1h-1zm1 0h1v1h-1zm1 0h1v1h-1zm1 0h1v1h-1zm1 0h1v1h-1zm1 0h1v1h-1zm1 0h1v1h-1zm1 0h1v1h-1zm1 0h1v1h-1zm1 0h1v1h-1zm1 0h1v1h-1zm1 0h1v1h-1zm-7 1h1v1h-1zm1 0h1v1h-1zm1 0h1v1h-1zm1 0h1v1h-1zm-3 1h1v1h-1zm1 0h1v1h-1zm1 0h1v1h-1zm1 0h1v1h-1zm-3 1h1v1h-1zm1 0h1v1h-1zm1 0h1v1h-1zm1 0h1v1h-1zm-3 1h1v1h-1zm1 0h1v1h-1zm1 0h1v1h-1zm1 0h1v1h-1z"/>
</svg>
