<svg xmlns="http://www.w3.org/2000/svg" width="32" height="32" shape-rendering="crispEdges">
  <path fill="#000" d="M4 0h1v1H4zm1 0h1v1H5zm1 0h1v1H6zm1 0h1v1H7zm17 0h1v1h-1zm1 0h1v1h-1zm1 0h1v1h-1zm1 0h1v1h-1zM4 1h1v1H4zm1 0h1v1H5zm1 0h1v1H6zm1 0h1v1H7zm17 0h1v1h-1zm1 0h1v1h-1zm1 0h1v1h-1zm1 0h1v1h-1zM4 2h1v1H4zm1 0h1v1H5zm1 0h1v1H6zm1 0h1v1H7zm17 0h1v1h-1zm1 0h1v1h-1zm1 0h1v1h-1zm1 0h1v1h-1zM4 3h1v1H4zm1 0h1v1H5zm1 0h1v1H6zm1 0h1v1H7zm17 0h1v1h-1zm1 0h1v1h-1zm1 0h1v1h-1zm1 0h1v1h-1zM4 4h1v1H4zm1 0h1v1H5zm1 0h1v1H6zm1 0h1v1H7zm1 0h1v1H8zm1 0h1v1H9zm1 0h1v1h-1zm1 0h1v1h-1zm13 0h1v1h-1zm1 0h1v1h-1zm1 0h1v1h-1zm1 0h1v1h-1zM4 5h1v1H4zm1 0h1v1H5zm1 0h1v1H6zm1 0h1v1H7zm1 0h1v1H8zm1 0h1v1H9zm1 0h1v1h-1zm1 0h1v1h-1zm13 0h1v1h-1zm1 0h1v1h-1zm1 0h1v1h-1zm1 0h1v1h-1zM4 6h1v1H4zm1 0h1v1H5zm1 0h1v1H6zm1 0h1v1H7zm1 0h1v1H8zm1 0h1v1H9zm1 0h1v1h-1zm1 0h1v1h-1zm13 0h1v1h-1zm1 0h1v1h-1zm1 0h1v1h-1zm1 0h1v1h-1zM4 7h1v1H4zm1 0h1v1H5zm1 0h1v1H6zm1 0h1v1H7zm1 0h1v1H8zm1 0h1v1H9zm1 0h1v1h-1zm1 0h1v1h-1zm13 0h1v1h-1zm1 0h1v1h-1zm1 0h1v1h-1zm1 0h1v1h-1zM4 8h1v1H4zm1 0h1v1H5zm1 0h1v1H6zm1 0h1v1H7zm5 0h1v1h-1zm1 0h1v1h-1zm1 0h1v1h-1zm1 0h1v1h-1zm9 0h1v1h-1zm1 0h1v1h-1zm1 0h1v1h-1zm1 0h1v1h-1zM4 9h1v1H4zm1 0h1v1H5zm1 0h1v1H6zm1 0h1v1H7zm5 0h1v1h-1zm1 0h1v1h-1zm1 0h1v1h-1zm1 0h1v1h-1zm9 0h1v1h-1zm1 0h1v1h-1zm1 0h1v1h-1zm1 0h1v1h-1zM4 10h1v1H4zm1 0h1v1H5zm1 0h1v1H6zm1 0h1v1H7zm5 0h1v1h-1zm1 0h1v1h-1zm1 0h1v1h-1zm1 0h1v1h-1zm9 0h1v1h-1zm1 0h1v1h-1zm1 0h1v1h-1zm1 0h1v1h-1zM4 11h1v1H4zm1 0h1v1H5zm1 0h1v1H6zm1 0h1v1H7zm5 0h1v1h-1zm1 0h1v1h-1zm1 0h1v1h-1zm1 0h1v1h-1zm9 0h1v1h-1zm1 0h1v1h-1zm1 0h1v1h-1zm1 0h1v1h-1zM4 12h1v1H4zm1 0h1v1H5zm1 0h1v1H6zm1 0h1v1H7zm9 0h1v1h-1zm1 0h1v1h-1zm1 0h1v1h-1zm1 0h1v1h-1zm5 0h1v1h-1zm1 0h1v1h-1zm1 0h1v1h-1zm1 0h1v1h-1zM4 13h1v1H4zm1 0h1v1H5zm1 0h1v1H6zm1 0h1v1H7zm9 0h1v1h-1zm1 0h1v1h-1zm1 0h1v1h-1zm1 0h1v1h-1zm5 0h1v1h-1zm1 0h1v1h-1zm1 0h1v1h-1zm1 0h1v1h-1zM4 14h1v1H4zm1 0h1v1H5zm1 0h1v1H6zm1 0h1v1H7zm9 0h1v1h-1zm1 0h1v1h-1zm1 0h1v1h-1zm1 0h1v1h-1zm5 0h1v1h-1zm1 0h1v1h-1zm1 0h1v1h-1zm1 0h1v1h-1zM4 15h1v1H4zm1 0h1v1H5zm1 0h1v1H6zm1 0h1v1H7zm9 0h1v1h-1zm1 0h1v1h-1zm1 0h1v1h-1zm1 0h1v1h-1zm5 0h1v1h-1zm1 0h1v1h-1zm1 0h1v1h-1zm1 0h1v1h-1zM4 16h1v1H4zm1 0h1v1H5zm1 0h1v1H6zm1 0h1v1H7zm13 0h1v1h-1zm1 0h1v1h-1zm1 0h1v1h-1zm1 0h1v1h-1zm1 0h1v1h-1zm1 0h1v1h-1zm1 0h1v1h-1zm1 0h1v1h-1zM4 17h1v1H4zm1 0h1v1H5zm1 0h1v1H6zm1 0h1v1H7zm13 0h1v1h-1zm1 0h1v1h-1zm1 0h1v1h-1zm1 0h1v1h-1zm1 0h1v1h-1zm1 0h1v1h-1zm1 0h1v1h-1zm1 0h1v1h-1zM4 18h1v1H4zm1 0h1v1H5zm1 0h1v1H6zm1 0h1v1H7zm13 0h1v1h-1zm1 0h1v1h-1zm1 0h1v1h-1zm1 0h1v1h-1zm1 0h1v1h-1zm1 0h1v1h-1zm1 0h1v1h-1zm1 0h1v1h-1zM4 19h1v1H4zm1 0h1v1H5zm1 0h1v1H6zm1 0h1v1H7zm13 0h1v1h-1zm1 0h1v1h-1zm1 0h1v1h-1zm1 0h1v1h-1zm1 0h1v1h-1zm1 0h1v1h-1zm1 0h1v1h-1zm1 0h1v1h-1zM4 20h1v1H4zm1 0h1v1H5zm1 0h1v1H6zm1 0h1v1H7zm17 0h1v1h-1zm1 0h1v1h-1zm1 0h1v1h-1zm1 0h1v1h-1zM4 21h1v1H4zm1 0h1v1H5zm1 0h1v1H6zm1 0h1v1H7zm17 0h1v1h-1zm1 0h1v1h-1zm1 0h1v1h-1zm1 0h1v1h-1zM4 22h1v1H4zm1 0h1v1H5zm1 0h1v1H6zm1 0h1v1H7zm17 0h1v1h-1zm1 0h1v1h-1zm1 0h1v1h-1zm1 0h1v1h-1zM4 23h1v1H4zm1 0h1v1H5zm1 0h1v1H6zm1 0h1v1H7zm17 0h1v1h-1zm1 0h1v1h-1zm1 0h1v1h-1zm1 0h1v1h-1zM4 24h1v1H4zm1 0h1v1H5zm1 0h1v1H6zm1 0h1v1H7zm17 0h1v1h-1zm1 0h1v1h-1zm1 0h1v1h-1zm1 0h1v1h-1zM4 25h1v1H4zm1 0h1v1H5zm1 0h1v1H6zm1 0h1v1H7zm17 0h1v1h-1zm1 0h1v1h-1zm1 0h1v1h-1zm1 0h1v1h-1zM4 26h1v1H4zm1 0h1v1H5zm1 0h1v1H6zm1 0h1v1H7zm17 0h1v1h-1zm1 0h1v1h-1zm1 0h1v1h-1zm1 0h1v1h-1zM4 27h1v1H4zm1 0h1v1H5zm1 0h1v1H6zm1 0h1v1H7zm17 0h1v1h-1zm1 0h1v1h-1zm1 0h1v1h-1zm1 0h1v1h-1zM4 28h1v1H4zm1 0h1v1H5zm1 0h1v1H6zm1 0h1v1H7zm17 0h1v1h-1zm1 0h1v1h-1zm1 0h1v1h-1zm1 0h1v1h-1zM4 29h1v1H4zm1 0h1v1H5zm1 0h1v1H6zm1 0h1v1H7zm17 0h1v1h-1zm1 0h1v1h-1zm1 0h1v1h-1zm1 0h1v1h-1zM4 30h1v1H4zm1 0h1v1H5zm1 0h1v1H6zm1 0h1v1H7zm17 0h1v1h-1zm1 0h1v1h-1zm1 0h1v1h-1zm1 0h1v1h-1zM4 31h1v1H4zm1 0h1v1H5zm1 0h1v1H6zm1 0h1v1H7zm17 0h1v1h-1zm1 0h1v1h-1zm1 0h1v1h-1zm1 0h1v1h-1z"/>
</svg>